<svg width="535.32001953125px" height="124.439990234375px" xmlns="http://www.w3.org/2000/svg" viewBox="-17.660009765624977 12.780004882812499 535.32001953125 124.439990234375" style="background: rgba(0, 0, 0, 0) none repeat scroll 0% 0%;" preserveAspectRatio="xMidYMid"><defs><filter id="editing-extrude-glow"><feFlood flood-color="#333333" result="flood-1"></feFlood><feMorphology operator="erode" radius="1" in="SourceAlpha" result="erode"></feMorphology><feComposite operator="in" in="flood-1" in2="erode" result="comp1"></feComposite><feConvolveMatrix order="3,3" divisor="1" in="comp1" result="convolve" kernelMatrix="0 0 0 1 1 1 0 0 0"></feConvolveMatrix><feOffset dx="-3" dy="0" in="convolve" result="extrude"></feOffset><feComposite operator="in" in="flood-1" in2="extrude" result="comp-extrude"></feComposite><feFlood flood-color="#000000" result="flood-2"></feFlood><feComposite operator="in" in="flood-2" in2="SourceAlpha" result="comp2"></feComposite><feMorphology operator="dilate" radius="1" in="comp2" result="dilate"></feMorphology><feOffset dx="-4.5" dy="0" in="dilate" result="offset"></feOffset><feGaussianBlur in="offset" stdDeviation="5.8" result="blur"></feGaussianBlur><feComponentTransfer in="blur" result="shadow"><feFuncA type="linear" slope="0.8" intercept="-0.2"></feFuncA></feComponentTransfer><feMerge><feMergeNode in="shadow"></feMergeNode><feMergeNode in="comp-extrude"></feMergeNode><feMergeNode in="SourceGraphic"></feMergeNode></feMerge></filter></defs><g filter="url(#editing-extrude-glow)"><g transform="translate(62.03999251127243, 99)"><path d="M33.15-16.83L33.15-16.83L33.15-16.83Q33.86-15.49 33.86-12.86L33.86-12.86L33.86-12.86Q33.86-10.24 31.90-8.42L31.90-8.42L31.90-8.42Q29.95-6.59 25.66-6.59L25.66-6.59L25.28-6.59L24.26 0L24.26 0Q22.53 1.28 19.46 1.28L19.46 1.28L19.46 1.28Q15.49 1.28 14.21-1.15L14.21-1.15L14.21-1.15Q13.70-2.05 13.70-2.82L13.70-2.82L13.70-2.82Q13.70-3.71 13.82-4.74L13.82-4.74L14.27-7.17L-0.45-8.70L-0.45-16.77L23.49-43.58L23.49-43.52L23.55-43.58L32.45-42.62L32.45-42.62Q29.44-30.34 26.88-16.19L26.88-16.19L28.35-16.19L28.35-16.19Q32-16.19 33.15-16.83ZM20.29-32.83L6.40-16.64L16.06-16.32L16.06-16.32Q18.18-25.73 20.29-32.83L20.29-32.83ZM36.16-3.07L36.16-3.07L44.10-44.80L57.09-46.08L55.10-36.29L55.10-36.29Q54.40-33.28 53.50-31.17L53.50-31.17L53.50-31.17Q54.91-32.96 57.98-33.66L57.98-33.66L57.98-33.66Q58.88-33.92 59.97-33.92L59.97-33.92L59.97-33.92Q65.92-33.92 69.18-30.30L69.18-30.30L69.18-30.30Q72.45-26.69 72.45-19.71L72.45-19.71L72.45-19.71Q72.45-10.62 67.26-4.93L67.26-4.93L67.26-4.93Q61.70 1.28 51.58 1.28L51.58 1.28L51.58 1.28Q44.61 1.28 39.36-1.02L39.36-1.02L39.36-1.02Q37.50-1.86 36.16-3.07ZM52.42-22.40L49.02-3.65L49.02-3.65Q50.37-2.50 52.03-2.50L52.03-2.50L52.03-2.50Q53.70-2.50 54.66-3.14L54.66-3.14L54.66-3.14Q55.62-3.78 56.32-5.06L56.32-5.06L56.32-5.06Q58.24-8.51 59.78-19.07L59.78-19.07L59.78-19.07Q60.22-22.08 60.22-25.09L60.22-25.09L60.22-25.09Q60.22-28.10 59.55-29.06L59.55-29.06L59.55-29.06Q58.88-30.02 57.60-30.02L57.60-30.02L57.60-30.02Q53.70-30.02 52.42-22.40L52.42-22.40ZM77.31-6.40L77.31-6.40L77.31-6.40Q77.31-8.13 78.21-12.48L78.21-12.48L81.60-29.76L77.82-29.76L78.08-31.68L78.08-31.68Q85.76-33.98 93.18-39.62L93.18-39.62L96.26-39.62L94.72-32.64L99.71-32.64L99.14-29.76L94.21-29.76L90.94-12.48L90.94-12.48Q90.11-8.51 90.11-7.17L90.11-7.17L90.11-7.17Q90.11-4.10 92.80-3.46L92.80-3.46L92.80-3.46Q92.16-1.28 89.86 0L89.86 0L89.86 0Q87.55 1.28 84.29 1.28L84.29 1.28L84.29 1.28Q81.02 1.28 79.17-0.77L79.17-0.77L79.17-0.77Q77.31-2.82 77.31-6.40ZM113.09 1.28L113.09 1.28L113.09 1.28Q99.01 1.28 99.01-11.97L99.01-11.97L99.01-11.97Q99.01-21.38 104.19-27.46L104.19-27.46L104.19-27.46Q109.70-33.92 119.23-33.92L119.23-33.92L119.23-33.92Q126.14-33.92 129.66-30.72L129.66-30.72L129.66-30.72Q133.18-27.52 133.18-20.80L133.18-20.80L133.18-20.80Q133.18-10.56 127.68-4.61L127.68-4.61L127.68-4.61Q122.30 1.28 113.09 1.28ZM114.75-26.56L114.75-26.56L114.75-26.56Q113.98-24.83 113.38-22.24L113.38-22.24L113.38-22.24Q112.77-19.65 112-15.55L112-15.55L112-15.55Q111.23-11.46 111.23-6.40L111.23-6.40L111.23-6.40Q111.23-4.74 111.78-3.65L111.78-3.65L111.78-3.65Q112.32-2.56 113.79-2.56L113.79-2.56L113.79-2.56Q115.26-2.56 116.19-3.26L116.19-3.26L116.19-3.26Q117.12-3.97 117.82-5.63L117.82-5.63L117.82-5.63Q119.10-8.58 120.13-14.05L120.13-14.05L120.13-14.05Q121.15-19.52 121.25-21.89L121.25-21.89L121.25-21.89Q121.34-24.26 121.34-26.02L121.34-26.02L121.34-26.02Q121.34-27.78 120.83-28.93L120.83-28.93L120.83-28.93Q120.32-30.08 118.88-30.08L118.88-30.08L118.88-30.08Q117.44-30.08 116.48-29.18L116.48-29.18L116.48-29.18Q115.52-28.29 114.75-26.56ZM175.17-42.69L175.17-42.69L175.17-42.69Q190.85-42.69 190.85-31.62L190.85-31.62L190.85-31.62Q190.85-25.54 186.94-21.89L186.94-21.89L186.94-21.89Q183.10-18.24 176.38-18.24L176.38-18.24L176.38-18.24Q173.25-18.24 170.82-20.03L170.82-20.03L170.82-20.03Q169.66-20.80 168.90-21.82L168.90-21.82L168.90-21.82Q173.57-21.82 176.03-24.67L176.03-24.67L176.03-24.67Q178.50-27.52 178.50-33.09L178.50-33.09L178.50-33.09Q178.50-38.66 172.99-38.66L172.99-38.66L171.46-38.66L171.46-38.66Q171.07-38.66 170.75-38.59L170.75-38.59L163.39 0L149.50 0L157.38-41.92L157.38-41.92Q164.22-42.56 168.19-42.62L168.19-42.62L168.19-42.62Q172.16-42.69 175.17-42.69ZM211.20-17.98L211.20-17.98L211.20-17.98Q213.50-22.08 213.50-26.24L213.50-26.24L213.50-26.24Q213.50-28.99 211.52-28.99L211.52-28.99L211.52-28.99Q209.98-28.99 208.38-26.37L208.38-26.37L208.38-26.37Q206.72-23.74 206.21-20.35L206.21-20.35L202.88 0L189.63 1.28L196.16-32.64L206.72-33.92L205.57-27.46L205.57-27.46Q208.70-33.92 215.74-33.92L215.74-33.92L215.74-33.92Q219.46-33.92 221.47-32L221.47-32L221.47-32Q223.49-30.08 223.49-26.14L223.49-26.14L223.49-26.14Q223.49-22.21 220.90-19.71L220.90-19.71L220.90-19.71Q218.30-17.22 213.89-17.22L213.89-17.22L213.89-17.22Q211.97-17.22 211.20-17.98ZM238.46 1.28L238.46 1.28L238.46 1.28Q224.38 1.28 224.38-11.97L224.38-11.97L224.38-11.97Q224.38-21.38 229.57-27.46L229.57-27.46L229.57-27.46Q235.07-33.92 244.61-33.92L244.61-33.92L244.61-33.92Q251.52-33.92 255.04-30.72L255.04-30.72L255.04-30.72Q258.56-27.52 258.56-20.80L258.56-20.80L258.56-20.80Q258.56-10.56 253.06-4.61L253.06-4.61L253.06-4.61Q247.68 1.28 238.46 1.28ZM240.13-26.56L240.13-26.56L240.13-26.56Q239.36-24.83 238.75-22.24L238.75-22.24L238.75-22.24Q238.14-19.65 237.38-15.55L237.38-15.55L237.38-15.55Q236.61-11.46 236.61-6.40L236.61-6.40L236.61-6.40Q236.61-4.74 237.15-3.65L237.15-3.65L237.15-3.65Q237.70-2.56 239.17-2.56L239.17-2.56L239.17-2.56Q240.64-2.56 241.57-3.26L241.57-3.26L241.57-3.26Q242.50-3.97 243.20-5.63L243.20-5.63L243.20-5.63Q244.48-8.58 245.50-14.05L245.50-14.05L245.50-14.05Q246.53-19.52 246.62-21.89L246.62-21.89L246.62-21.89Q246.72-24.26 246.72-26.02L246.72-26.02L246.72-26.02Q246.72-27.78 246.21-28.93L246.21-28.93L246.21-28.93Q245.70-30.08 244.26-30.08L244.26-30.08L244.26-30.08Q242.82-30.08 241.86-29.18L241.86-29.18L241.86-29.18Q240.90-28.29 240.13-26.56ZM263.36-6.40L263.36-6.40L263.36-6.40Q263.36-8.13 264.26-12.48L264.26-12.48L267.65-29.76L263.87-29.76L264.13-31.68L264.13-31.68Q271.81-33.98 279.23-39.62L279.23-39.62L282.30-39.62L280.77-32.64L285.76-32.64L285.18-29.76L280.26-29.76L276.99-12.48L276.99-12.48Q276.16-8.51 276.16-7.17L276.16-7.17L276.16-7.17Q276.16-4.10 278.85-3.46L278.85-3.46L278.85-3.46Q278.21-1.28 275.90 0L275.90 0L275.90 0Q273.60 1.28 270.34 1.28L270.34 1.28L270.34 1.28Q267.07 1.28 265.22-0.77L265.22-0.77L265.22-0.77Q263.36-2.82 263.36-6.40ZM299.14 1.28L299.14 1.28L299.14 1.28Q285.06 1.28 285.06-11.97L285.06-11.97L285.06-11.97Q285.06-21.38 290.24-27.46L290.24-27.46L290.24-27.46Q295.74-33.92 305.28-33.92L305.28-33.92L305.28-33.92Q312.19-33.92 315.71-30.72L315.71-30.72L315.71-30.72Q319.23-27.52 319.23-20.80L319.23-20.80L319.23-20.80Q319.23-10.56 313.73-4.61L313.73-4.61L313.73-4.61Q308.35 1.28 299.14 1.28ZM300.80-26.56L300.80-26.56L300.80-26.56Q300.03-24.83 299.42-22.24L299.42-22.24L299.42-22.24Q298.82-19.65 298.05-15.55L298.05-15.55L298.05-15.55Q297.28-11.46 297.28-6.40L297.28-6.40L297.28-6.40Q297.28-4.74 297.82-3.65L297.82-3.65L297.82-3.65Q298.37-2.56 299.84-2.56L299.84-2.56L299.84-2.56Q301.31-2.56 302.24-3.26L302.24-3.26L302.24-3.26Q303.17-3.97 303.87-5.63L303.87-5.63L303.87-5.63Q305.15-8.58 306.18-14.05L306.18-14.05L306.18-14.05Q307.20-19.52 307.30-21.89L307.30-21.89L307.30-21.89Q307.39-24.26 307.39-26.02L307.39-26.02L307.39-26.02Q307.39-27.78 306.88-28.93L306.88-28.93L306.88-28.93Q306.37-30.08 304.93-30.08L304.93-30.08L304.93-30.08Q303.49-30.08 302.53-29.18L302.53-29.18L302.53-29.18Q301.57-28.29 300.80-26.56ZM354.43-26.62L354.43-26.62L354.43-26.62Q354.43-23.94 352.19-22.27L352.19-22.27L352.19-22.27Q349.95-20.61 346.30-20.61L346.30-20.61L346.30-20.61Q344.77-20.61 343.87-21.06L343.87-21.06L343.87-21.06Q344.58-22.72 344.80-24.80L344.80-24.80L344.80-24.80Q345.02-26.88 345.02-27.46L345.02-27.46L345.02-27.46Q345.02-30.14 343.17-30.14L343.17-30.14L343.17-30.14Q341.89-30.14 340.45-28.54L340.45-28.54L340.45-28.54Q339.01-26.94 337.79-24.45L337.79-24.45L337.79-24.45Q335.10-18.69 335.10-12.86L335.10-12.86L335.10-12.86Q335.10-9.66 336.32-8.22L336.32-8.22L336.32-8.22Q337.54-6.78 340.22-6.78L340.22-6.78L340.22-6.78Q343.94-6.78 346.88-9.86L346.88-9.86L346.88-9.86Q347.71-10.82 348.16-11.90L348.16-11.90L348.16-11.90Q350.59-10.62 350.59-7.10L350.59-7.10L350.59-7.10Q350.59-3.52 346.62-1.15L346.62-1.15L346.62-1.15Q342.53 1.28 336 1.28L336 1.28L336 1.28Q323.01 1.28 323.01-12.48L323.01-12.48L323.01-12.48Q323.01-22.53 328.70-28.29L328.70-28.29L328.70-28.29Q334.21-33.92 344.32-33.92L344.32-33.92L344.32-33.92Q354.43-33.92 354.43-26.62ZM371.52-3.52L371.52-3.52L371.52-3.52Q369.54 1.28 363.20 1.28L363.20 1.28L363.20 1.28Q359.94 1.28 357.89-0.96L357.89-0.96L357.89-0.96Q356.16-2.94 356.16-4.93L356.16-4.93L356.16-4.93Q356.16-10.11 358.53-20.22L358.53-20.22L360.90-32.64L373.89-33.92L369.98-13.70L369.98-13.70Q368.90-8.96 368.90-7.30L368.90-7.30L368.90-7.30Q368.90-3.65 371.52-3.52ZM362.05-41.54L362.05-41.54L362.05-41.54Q362.05-44.03 364.13-45.38L364.13-45.38L364.13-45.38Q366.21-46.72 369.22-46.72L369.22-46.72L369.22-46.72Q372.22-46.72 374.05-45.38L374.05-45.38L374.05-45.38Q375.87-44.03 375.87-41.54L375.87-41.54L375.87-41.54Q375.87-39.04 373.86-37.76L373.86-37.76L373.86-37.76Q371.84-36.48 368.83-36.48L368.83-36.48L368.83-36.48Q365.82-36.48 363.94-37.76L363.94-37.76L363.94-37.76Q362.05-39.04 362.05-41.54Z" fill="#6c89eb"></path></g></g><style>text {
  font-size: 64px;
  font-family: Arial Black;
  dominant-baseline: central;
  text-anchor: middle;
}</style></svg>